<svg xmlns="http://www.w3.org/2000/svg" xmlns:xlink="http://www.w3.org/1999/xlink" viewBox="0 0 212 90.51"><defs><style>.cls-1{fill:url(#Безымянный_градиент_25);}.cls-2{fill:url(#Безымянный_градиент_25-2);}.cls-3{fill:url(#Безымянный_градиент_25-3);}.cls-4{fill:url(#Безымянный_градиент_25-4);}.cls-5{fill:url(#Безымянный_градиент_25-5);}.cls-6{fill:url(#Безымянный_градиент_10);}.cls-7{fill:url(#Безымянный_градиент_25-6);}.cls-8{fill:url(#Безымянный_градиент_10-2);}.cls-9{fill:url(#Безымянный_градиент_25-7);}.cls-10{fill:url(#Безымянный_градиент_10-3);}.cls-11{fill:url(#Безымянный_градиент_25-8);}.cls-12{fill:url(#Безымянный_градиент_22);}.cls-13{fill:url(#Безымянный_градиент_25-9);}.cls-14{fill:url(#Безымянный_градиент_22-2);}.cls-15{fill:url(#Безымянный_градиент_25-10);}.cls-16{fill:url(#Безымянный_градиент_22-3);}.cls-17{fill:url(#Безымянный_градиент_25-11);}.cls-18{fill:url(#Безымянный_градиент_22-4);}.cls-19{fill:url(#Безымянный_градиент_25-12);}.cls-20{fill:url(#Безымянный_градиент_22-5);}.cls-21{fill:url(#Безымянный_градиент_25-13);}.cls-22{fill:url(#Безымянный_градиент_22-6);}.cls-23{fill:url(#Безымянный_градиент_25-14);}.cls-24{fill:url(#Безымянный_градиент_25-15);}.cls-25{fill:url(#Безымянный_градиент_25-16);}</style><linearGradient id="Безымянный_градиент_25" x1="-47.65" y1="105.37" x2="197.02" y2="158.88" gradientTransform="matrix(1, 0, 0, -1, 0, 131.94)" gradientUnits="userSpaceOnUse"><stop offset="0" stop-color="#e44f8f"/><stop offset="1" stop-color="#f4c64b"/></linearGradient><linearGradient id="Безымянный_градиент_25-2" x1="-43.89" y1="95.19" x2="200.78" y2="148.71" xlink:href="#Безымянный_градиент_25"/><linearGradient id="Безымянный_градиент_25-3" x1="-34.95" y1="80.58" x2="202.8" y2="130.97" xlink:href="#Безымянный_градиент_25"/><linearGradient id="Безымянный_градиент_25-4" x1="-40.4" y1="91.68" x2="197.87" y2="142.3" xlink:href="#Безымянный_градиент_25"/><linearGradient id="Безымянный_градиент_25-5" x1="-31.52" y1="-5.86" x2="222.39" y2="278.91" xlink:href="#Безымянный_градиент_25"/><linearGradient id="Безымянный_градиент_10" x1="38.95" y1="101.85" x2="39" y2="69.35" gradientTransform="matrix(1, 0, 0, -1, 0, 131.94)" gradientUnits="userSpaceOnUse"><stop offset="0" stop-color="#c12274"/><stop offset="1" stop-color="#c12274" stop-opacity="0"/></linearGradient><linearGradient id="Безымянный_градиент_25-6" x1="-32.68" y1="-13.79" x2="234.44" y2="272.19" xlink:href="#Безымянный_градиент_25"/><linearGradient id="Безымянный_градиент_10-2" x1="49.95" y1="101.85" x2="50" y2="69.35" xlink:href="#Безымянный_градиент_10"/><linearGradient id="Безымянный_градиент_25-7" x1="-20.89" y1="-24.71" x2="219.3" y2="258.15" xlink:href="#Безымянный_градиент_25"/><linearGradient id="Безымянный_градиент_10-3" x1="60.95" y1="101.85" x2="61" y2="69.35" xlink:href="#Безымянный_градиент_10"/><linearGradient id="Безымянный_градиент_25-8" x1="-22.01" y1="-78.08" x2="229.2" y2="206.86" xlink:href="#Безымянный_градиент_25"/><linearGradient id="Безымянный_градиент_22" x1="98.66" y1="31.44" x2="121.7" y2="104.87" gradientTransform="matrix(1, 0, 0, -1, 0, 131.94)" gradientUnits="userSpaceOnUse"><stop offset="0.67" stop-color="#c12274" stop-opacity="0"/><stop offset="1" stop-color="#c12274"/></linearGradient><linearGradient id="Безымянный_градиент_25-9" x1="-16.32" y1="-88.31" x2="232.39" y2="196.31" xlink:href="#Безымянный_градиент_25"/><linearGradient id="Безымянный_градиент_22-2" x1="108.74" y1="26.15" x2="131.7" y2="99.45" xlink:href="#Безымянный_градиент_22"/><linearGradient id="Безымянный_градиент_25-10" x1="-13.9" y1="-99.03" x2="239.23" y2="186.15" xlink:href="#Безымянный_градиент_25"/><linearGradient id="Безымянный_градиент_22-3" x1="118.99" y1="20.39" x2="142.31" y2="94.22" xlink:href="#Безымянный_градиент_22"/><linearGradient id="Безымянный_градиент_25-11" x1="-15.12" y1="-174.21" x2="233.59" y2="110.4" xlink:href="#Безымянный_градиент_25"/><linearGradient id="Безымянный_градиент_22-4" x1="211.9" y1="26.16" x2="189.22" y2="99.05" xlink:href="#Безымянный_градиент_22"/><linearGradient id="Безымянный_градиент_25-12" x1="-14.55" y1="-182.02" x2="235.39" y2="102.76" xlink:href="#Безымянный_градиент_25"/><linearGradient id="Безымянный_градиент_22-5" x1="222.39" y1="31.54" x2="199.54" y2="104.69" xlink:href="#Безымянный_градиент_22"/><linearGradient id="Безымянный_градиент_25-13" x1="-20.06" y1="-167.1" x2="233.07" y2="118.08" xlink:href="#Безымянный_градиент_25"/><linearGradient id="Безымянный_градиент_22-6" x1="201.8" y1="20.41" x2="178.48" y2="94.25" xlink:href="#Безымянный_градиент_22"/><linearGradient id="Безымянный_градиент_25-14" x1="21.33" y1="1.87" x2="199.32" y2="133.37" xlink:href="#Безымянный_градиент_25"/><linearGradient id="Безымянный_градиент_25-15" x1="20.14" y1="17.1" x2="199.78" y2="148.08" xlink:href="#Безымянный_градиент_25"/><linearGradient id="Безымянный_градиент_25-16" x1="47.62" y1="49.07" x2="192.54" y2="150.83" xlink:href="#Безымянный_градиент_25"/></defs><title>Ресурс 2</title><g id="Слой_2" data-name="Слой 2"><g id="Слой_1-2" data-name="Слой 1"><path class="cls-1" d="M100,2.21H0v6H100Z"/><path class="cls-2" d="M100,13.21H0v6H100Z"/><path class="cls-3" d="M99.9,24.21H58v6H99.9Z"/><path class="cls-4" d="M42,24.21H0v6H42Z"/><path class="cls-5" d="M42,27.21H36v63h6Z"/><path class="cls-6" d="M42,30.21H36v60h6Z"/><path class="cls-7" d="M53,24.21H47v66h6Z"/><path class="cls-8" d="M53,30.21H47v60h6Z"/><path class="cls-9" d="M64,30.21H58v60h6Z"/><path class="cls-10" d="M64,30.21H58v60h6Z"/><path class="cls-11" d="M115,28.09V90.51h-6v-65Z"/><path class="cls-12" d="M115,28V90.51h-6V25.41Z"/><path class="cls-13" d="M125.83,34.08V90.51h-6v-59Z"/><path class="cls-14" d="M125.83,33.7V90.51h-6V31.11Z"/><path class="cls-15" d="M136.85,41.12V90.51h-6v-52Z"/><path class="cls-16" d="M136.85,41.12V90.51h-6v-52Z"/><path class="cls-17" d="M201,31.51v59h-6V34.08Z"/><path class="cls-18" d="M195,34.08V90.51h6v-59Z"/><path class="cls-19" d="M212,25V90.51h-6V28Z"/><path class="cls-20" d="M206,28V90.51h6v-66Z"/><path class="cls-21" d="M190,38.51v52h-6V41.12Z"/><path class="cls-22" d="M184,41.12V90.51h6v-52Z"/><path class="cls-23" d="M162.76,59.2,212,30.5V24L160.38,53.57,109,24v6.5L157.71,59l2.66,1.48Z"/><path class="cls-24" d="M162.76,44.7,212,16V9L160.38,39.15,109,9v7l48.71,28.54L160.37,46Z"/><path class="cls-25" d="M162.76,28.91,201,7.21V0L160.38,23.36,120,0V7.21l37.71,21.54,2.66,1.46Z"/></g></g></svg>